<svg width="44" height="36" viewBox="0 0 44 36" fill="none" xmlns="http://www.w3.org/2000/svg">
<rect x="0.5" y="0.5" width="43" height="35" rx="17.5" stroke="#545454"/>
<path fill-rule="evenodd" clip-rule="evenodd" d="M26.7054 12.7917L29.5 12.7917L29.5 11.5417L26.7054 11.5417C26.4333 10.5798 25.549 9.875 24.5 9.875C23.451 9.875 22.5667 10.5798 22.2946 11.5417L14.5 11.5417L14.5 12.7917L22.2946 12.7917C22.5667 13.7535 23.451 14.4583 24.5 14.4583C25.549 14.4583 26.4333 13.7535 26.7054 12.7917ZM24.5 11.125C25.0753 11.125 25.5417 11.5914 25.5417 12.1667C25.5417 12.742 25.0753 13.2083 24.5 13.2083C23.9247 13.2083 23.4583 12.742 23.4583 12.1667C23.4583 11.5914 23.9247 11.125 24.5 11.125Z" fill="#B6B6B6"/>
<path fill-rule="evenodd" clip-rule="evenodd" d="M20.8721 17.375C20.6 16.4131 19.7156 15.7083 18.6667 15.7083C17.6177 15.7083 16.7333 16.4131 16.4613 17.375L14.5 17.375L14.5 18.625L16.4613 18.625C16.7333 19.5869 17.6177 20.2917 18.6667 20.2917C19.7156 20.2917 20.6 19.5869 20.8721 18.625L29.5 18.625L29.5 17.375L20.8721 17.375ZM18.6667 16.9583C19.242 16.9583 19.7083 17.4247 19.7083 18C19.7083 18.5753 19.242 19.0417 18.6667 19.0417C18.0914 19.0417 17.625 18.5753 17.625 18C17.625 17.4247 18.0914 16.9583 18.6667 16.9583Z" fill="#B6B6B6"/>
<path fill-rule="evenodd" clip-rule="evenodd" d="M25.0387 24.4583L29.5 24.4583L29.5 23.2083L25.0387 23.2083C24.7667 22.2465 23.8823 21.5417 22.8333 21.5417C21.7844 21.5417 20.9 22.2465 20.6279 23.2083L14.5 23.2083L14.5 24.4583L20.6279 24.4583C20.9 25.4202 21.7844 26.125 22.8333 26.125C23.8823 26.125 24.7667 25.4202 25.0387 24.4583ZM22.8333 22.7917C23.4086 22.7917 23.875 23.258 23.875 23.8333C23.875 24.4086 23.4086 24.875 22.8333 24.875C22.258 24.875 21.7917 24.4086 21.7917 23.8333C21.7917 23.258 22.258 22.7917 22.8333 22.7917Z" fill="#B6B6B6"/>
</svg>
