<svg width="36" height="33" viewBox="0 0 36 33" fill="none" xmlns="http://www.w3.org/2000/svg">
<rect x="0.5" y="0.949219" width="35" height="31" stroke="#545454"/>
<path fill-rule="evenodd" clip-rule="evenodd" d="M22.7054 11.2409L25.5 11.2409L25.5 9.99089L22.7054 9.99089C22.4333 9.02901 21.549 8.32422 20.5 8.32422C19.451 8.32422 18.5667 9.02901 18.2946 9.99089L10.5 9.99088L10.5 11.2409L18.2946 11.2409C18.5667 12.2028 19.451 12.9076 20.5 12.9076C21.549 12.9076 22.4333 12.2028 22.7054 11.2409ZM20.5 9.57422C21.0753 9.57422 21.5417 10.0406 21.5417 10.6159C21.5417 11.1912 21.0753 11.6576 20.5 11.6576C19.9247 11.6576 19.4583 11.1912 19.4583 10.6159C19.4583 10.0406 19.9247 9.57422 20.5 9.57422Z" fill="#B6B6B6"/>
<path fill-rule="evenodd" clip-rule="evenodd" d="M16.8721 15.8242C16.6 14.8623 15.7156 14.1576 14.6667 14.1576C13.6177 14.1576 12.7333 14.8623 12.4613 15.8242L10.5 15.8242L10.5 17.0742L12.4613 17.0742C12.7333 18.0361 13.6177 18.7409 14.6667 18.7409C15.7156 18.7409 16.6 18.0361 16.8721 17.0742L25.5 17.0742L25.5 15.8242L16.8721 15.8242ZM14.6667 15.4076C15.242 15.4076 15.7083 15.8739 15.7083 16.4492C15.7083 17.0245 15.242 17.4909 14.6667 17.4909C14.0914 17.4909 13.625 17.0245 13.625 16.4492C13.625 15.8739 14.0914 15.4076 14.6667 15.4076Z" fill="#B6B6B6"/>
<path fill-rule="evenodd" clip-rule="evenodd" d="M21.0387 22.9076L25.5 22.9076L25.5 21.6576L21.0387 21.6576C20.7667 20.6957 19.8823 19.9909 18.8333 19.9909C17.7844 19.9909 16.9 20.6957 16.6279 21.6576L10.5 21.6576L10.5 22.9076L16.6279 22.9076C16.9 23.8694 17.7844 24.5742 18.8333 24.5742C19.8823 24.5742 20.7667 23.8694 21.0387 22.9076ZM18.8333 21.2409C19.4086 21.2409 19.875 21.7073 19.875 22.2826C19.875 22.8578 19.4086 23.3242 18.8333 23.3242C18.258 23.3242 17.7917 22.8578 17.7917 22.2826C17.7917 21.7073 18.258 21.2409 18.8333 21.2409Z" fill="#B6B6B6"/>
</svg>
