<svg width="100" height="33" viewBox="0 0 100 33" fill="black" xmlns="http://www.w3.org/2000/svg">
<rect x="0.5" y="0.5" width="99" height="32" stroke="#545454"/>
<path fill-rule="evenodd" clip-rule="evenodd" d="M26.8224 12.5206L17.9836 21.3594L13.1785 16.5543L14.0623 15.6704L17.9836 19.5917L25.9386 11.6367L26.8224 12.5206Z" fill="#E7E7E7"/>
<path d="M33.3965 21V11.1016H39.4121V12.2227H34.5996V15.4629H38.9746V16.584H34.5996V21H33.3965ZM43.9375 21.1914C41.873 21.1914 40.3145 19.5918 40.3145 17.4727C40.3145 15.3535 41.873 13.7539 43.9375 13.7539C46.002 13.7539 47.5605 15.3535 47.5605 17.4727C47.5605 19.5918 46.002 21.1914 43.9375 21.1914ZM43.9375 20.0977C45.373 20.0977 46.3848 19.0176 46.3848 17.4727C46.3848 15.9277 45.373 14.8477 43.9375 14.8477C42.502 14.8477 41.4902 15.9277 41.4902 17.4727C41.4902 19.0176 42.502 20.0977 43.9375 20.0977ZM49.0645 21V11.1016H50.2129V21H49.0645ZM52.0449 21V11.1016H53.1934V21H52.0449ZM58.3203 21.1914C56.2559 21.1914 54.6973 19.5918 54.6973 17.4727C54.6973 15.3535 56.2559 13.7539 58.3203 13.7539C60.3848 13.7539 61.9434 15.3535 61.9434 17.4727C61.9434 19.5918 60.3848 21.1914 58.3203 21.1914ZM58.3203 20.0977C59.7559 20.0977 60.7676 19.0176 60.7676 17.4727C60.7676 15.9277 59.7559 14.8477 58.3203 14.8477C56.8848 14.8477 55.873 15.9277 55.873 17.4727C55.873 19.0176 56.8848 20.0977 58.3203 20.0977ZM64.8828 21L62.5176 13.9453H63.707L65.5664 19.7695H65.6074L67.2207 13.9453H68.3691L69.9824 19.7695H70.0371L71.8828 13.9453H73.0723L70.707 21H69.2715L67.8223 16.0918H67.7812L66.3184 21H64.8828ZM77.3242 21.1914C75.2051 21.1914 73.6465 19.5918 73.6465 17.4727C73.6465 15.3535 75.1641 13.7539 77.1875 13.7539C79.2109 13.7539 80.6191 15.3535 80.6191 17.4727L80.6055 17.8691H74.8496C75.0068 19.2227 76.0049 20.0977 77.3516 20.0977C78.3223 20.0977 79.0195 19.6396 79.375 18.8809L80.3867 19.3184C79.8467 20.4531 78.7734 21.1914 77.3242 21.1914ZM74.9043 16.748H79.3613C79.2793 15.6748 78.4043 14.8477 77.1875 14.8477C76.0254 14.8477 75.1572 15.5996 74.9043 16.748ZM88.6582 21H87.5098V19.8926H87.4688C86.9834 20.7334 86.1973 21.1914 85.1582 21.1914C83.2031 21.1914 81.7949 19.5918 81.7949 17.4727C81.7949 15.3535 83.2031 13.7539 85.1582 13.7539C86.1973 13.7539 86.9834 14.2119 87.4688 15.0527H87.5098V11.1016H88.6582V21ZM85.2676 20.0977C86.6074 20.0977 87.5645 19.0176 87.5645 17.4727C87.5645 15.9277 86.6074 14.8477 85.2676 14.8477C83.9141 14.8477 82.9707 15.9414 82.9707 17.4727C82.9707 19.0039 83.9141 20.0977 85.2676 20.0977Z" fill="#E7E7E7"/>
</svg>
