<svg width="391" height="50" viewBox="0 0 391 50" fill="none" xmlns="http://www.w3.org/2000/svg">
<rect width="391" height="50" fill="#FEE500"/>
<path fill-rule="evenodd" clip-rule="evenodd" d="M118.5 16.9502C113.861 16.9502 110.1 19.9334 110.1 23.6128C110.1 25.9011 111.555 27.9183 113.77 29.1181L112.838 32.6137C112.755 32.9225 113.099 33.1687 113.363 32.9897L117.449 30.2214C117.793 30.2556 118.144 30.2755 118.5 30.2755C123.139 30.2755 126.9 27.2923 126.9 23.6128C126.9 19.9334 123.139 16.9502 118.5 16.9502Z" fill="black"/>
<path d="M138.394 31.5V18.7734H139.941V30.0586H145.988V31.5H138.394ZM151.736 31.7461C149.082 31.7461 147.078 29.6895 147.078 26.9648C147.078 24.2402 149.082 22.1836 151.736 22.1836C154.39 22.1836 156.394 24.2402 156.394 26.9648C156.394 29.6895 154.39 31.7461 151.736 31.7461ZM151.736 30.3398C153.582 30.3398 154.883 28.9512 154.883 26.9648C154.883 24.9785 153.582 23.5898 151.736 23.5898C149.89 23.5898 148.59 24.9785 148.59 26.9648C148.59 28.9512 149.89 30.3398 151.736 30.3398ZM162.371 30.0586C164.094 30.0586 165.324 28.7227 165.324 26.8242C165.324 24.9258 164.094 23.5898 162.371 23.5898C160.631 23.5898 159.418 24.9434 159.418 26.8242C159.418 28.7051 160.631 30.0586 162.371 30.0586ZM162.195 35.543C160.402 35.543 159.084 34.7871 158.099 33.2578L159.33 32.4844C160.103 33.6621 160.947 34.1367 162.195 34.1367C164.181 34.1367 165.254 32.9238 165.254 30.5859V29.8477H165.183C164.577 30.9023 163.566 31.4648 162.23 31.4648C159.717 31.4648 157.906 29.4609 157.906 26.8242C157.906 24.1875 159.717 22.1836 162.23 22.1836C163.566 22.1836 164.577 22.7461 165.183 23.8008H165.254V22.4297H166.73V30.5859C166.73 33.7324 164.99 35.543 162.195 35.543ZM173.656 31.5V18.7734H175.203V31.5H173.656ZM177.629 31.5V22.4297H179.105V23.748H179.176C179.615 22.7812 180.591 22.1836 181.883 22.1836C183.904 22.1836 185.011 23.6074 185.011 25.9453V31.5H183.535V26.1562C183.535 24.4863 182.832 23.5898 181.566 23.5898C180.301 23.5898 179.105 24.4863 179.105 26.4375V31.5H177.629ZM194.064 31.5L191.023 22.4297H192.552L194.943 29.918H194.996L197.07 22.4297H198.547L200.621 29.918H200.691L203.064 22.4297H204.594L201.552 31.5H199.707L197.844 25.1895H197.791L195.91 31.5H194.064ZM206.105 31.5V22.4297H207.582V31.5H206.105ZM206.844 20.5312C206.281 20.5312 205.859 20.1094 205.859 19.5469C205.859 18.9844 206.281 18.5625 206.844 18.5625C207.406 18.5625 207.828 18.9844 207.828 19.5469C207.828 20.1094 207.406 20.5312 206.844 20.5312ZM209.375 23.6602V22.4297H210.922V20.1797H212.398V22.4297H214.648V23.6602H212.398V28.8633C212.398 29.8477 212.82 30.3047 213.734 30.3047C214.015 30.3047 214.332 30.252 214.648 30.1641V31.5527C214.367 31.6582 213.98 31.7461 213.523 31.7461C211.924 31.7461 210.922 30.6562 210.922 28.916V23.6602H209.375ZM216.582 31.5V18.7734H218.058V23.748H218.129C218.568 22.7812 219.544 22.1836 220.836 22.1836C222.857 22.1836 223.965 23.6074 223.965 25.9453V31.5H222.488V26.1562C222.488 24.4863 221.785 23.5898 220.519 23.5898C219.254 23.5898 218.058 24.4863 218.058 26.4375V31.5H216.582ZM230.89 31.5V18.7734H232.437V24.4512H232.508L237.763 18.7734H239.802L234.09 24.8203L240.013 31.5H237.904L232.508 25.2949H232.437V31.5H230.89ZM245.217 30.3398C246.939 30.3398 248.17 28.9512 248.17 26.9648C248.17 24.9785 246.939 23.5898 245.217 23.5898C243.476 23.5898 242.263 24.9961 242.263 26.9648C242.263 28.9336 243.476 30.3398 245.217 30.3398ZM249.576 31.5H248.099V30.0762H248.047C247.423 31.1572 246.412 31.7461 245.076 31.7461C242.562 31.7461 240.752 29.6895 240.752 26.9648C240.752 24.2402 242.562 22.1836 245.076 22.1836C246.412 22.1836 247.423 22.7725 248.047 23.8535H248.099V22.4297H249.576V31.5ZM251.931 31.5V18.7734H253.408V26.3672L257.047 22.4297H258.998L254.92 26.7539L259.156 31.5H257.24L253.408 27.2109V31.5H251.931ZM264.289 30.3398C266.011 30.3398 267.242 28.9512 267.242 26.9648C267.242 24.9785 266.011 23.5898 264.289 23.5898C262.549 23.5898 261.336 24.9961 261.336 26.9648C261.336 28.9336 262.549 30.3398 264.289 30.3398ZM268.648 31.5H267.172V30.0762H267.119C266.495 31.1572 265.484 31.7461 264.148 31.7461C261.635 31.7461 259.824 29.6895 259.824 26.9648C259.824 24.2402 261.635 22.1836 264.148 22.1836C265.484 22.1836 266.495 22.7725 267.119 23.8535H267.172V22.4297H268.648V31.5ZM275.24 31.7461C272.586 31.7461 270.582 29.6895 270.582 26.9648C270.582 24.2402 272.586 22.1836 275.24 22.1836C277.894 22.1836 279.898 24.2402 279.898 26.9648C279.898 29.6895 277.894 31.7461 275.24 31.7461ZM275.24 30.3398C277.086 30.3398 278.386 28.9512 278.386 26.9648C278.386 24.9785 277.086 23.5898 275.24 23.5898C273.394 23.5898 272.094 24.9785 272.094 26.9648C272.094 28.9512 273.394 30.3398 275.24 30.3398Z" fill="black"/>
</svg>
