<svg width="101" height="28" viewBox="0 0 101 28" fill="none" xmlns="http://www.w3.org/2000/svg">
<rect width="100" height="28" transform="translate(0.261963)" fill="#3B3B3B"/>
<path d="M36.3459 18V10.9297H40.6428V11.7305H37.2053V14.0449H40.3303V14.8457H37.2053V18H36.3459ZM43.8752 18.1367C42.4006 18.1367 41.2874 16.9941 41.2874 15.4805C41.2874 13.9668 42.4006 12.8242 43.8752 12.8242C45.3499 12.8242 46.4631 13.9668 46.4631 15.4805C46.4631 16.9941 45.3499 18.1367 43.8752 18.1367ZM43.8752 17.3555C44.9006 17.3555 45.6233 16.584 45.6233 15.4805C45.6233 14.377 44.9006 13.6055 43.8752 13.6055C42.8499 13.6055 42.1272 14.377 42.1272 15.4805C42.1272 16.584 42.8499 17.3555 43.8752 17.3555ZM47.5374 18V10.9297H48.3577V18H47.5374ZM49.6663 18V10.9297H50.4866V18H49.6663ZM54.1487 18.1367C52.6741 18.1367 51.5608 16.9941 51.5608 15.4805C51.5608 13.9668 52.6741 12.8242 54.1487 12.8242C55.6233 12.8242 56.7366 13.9668 56.7366 15.4805C56.7366 16.9941 55.6233 18.1367 54.1487 18.1367ZM54.1487 17.3555C55.1741 17.3555 55.8967 16.584 55.8967 15.4805C55.8967 14.377 55.1741 13.6055 54.1487 13.6055C53.1233 13.6055 52.4006 14.377 52.4006 15.4805C52.4006 16.584 53.1233 17.3555 54.1487 17.3555ZM58.8362 18L57.1467 12.9609H57.9963L59.3245 17.1211H59.3538L60.5061 12.9609H61.3264L62.4788 17.1211H62.5178L63.8362 12.9609H64.6858L62.9963 18H61.9709L60.9358 14.4941H60.9065L59.8616 18H58.8362Z" fill="#E7E7E7"/>
</svg>
