<svg width="101" height="33" viewBox="0 0 101 33" fill="none" xmlns="http://www.w3.org/2000/svg">
<rect width="100" height="33" transform="translate(0.5)" fill="#3B3B3B"/>
<path d="M31.0176 21V11.1016H37.0332V12.2227H32.2207V15.4629H36.5957V16.584H32.2207V21H31.0176ZM41.5586 21.1914C39.4941 21.1914 37.9355 19.5918 37.9355 17.4727C37.9355 15.3535 39.4941 13.7539 41.5586 13.7539C43.623 13.7539 45.1816 15.3535 45.1816 17.4727C45.1816 19.5918 43.623 21.1914 41.5586 21.1914ZM41.5586 20.0977C42.9941 20.0977 44.0059 19.0176 44.0059 17.4727C44.0059 15.9277 42.9941 14.8477 41.5586 14.8477C40.123 14.8477 39.1113 15.9277 39.1113 17.4727C39.1113 19.0176 40.123 20.0977 41.5586 20.0977ZM46.6855 21V11.1016H47.834V21H46.6855ZM49.666 21V11.1016H50.8145V21H49.666ZM55.9414 21.1914C53.877 21.1914 52.3184 19.5918 52.3184 17.4727C52.3184 15.3535 53.877 13.7539 55.9414 13.7539C58.0059 13.7539 59.5645 15.3535 59.5645 17.4727C59.5645 19.5918 58.0059 21.1914 55.9414 21.1914ZM55.9414 20.0977C57.377 20.0977 58.3887 19.0176 58.3887 17.4727C58.3887 15.9277 57.377 14.8477 55.9414 14.8477C54.5059 14.8477 53.4941 15.9277 53.4941 17.4727C53.4941 19.0176 54.5059 20.0977 55.9414 20.0977ZM62.5039 21L60.1387 13.9453H61.3281L63.1875 19.7695H63.2285L64.8418 13.9453H65.9902L67.6035 19.7695H67.6582L69.5039 13.9453H70.6934L68.3281 21H66.8926L65.4434 16.0918H65.4023L63.9395 21H62.5039Z" fill="#E7E7E7"/>
</svg>

