<svg width="431" height="64" viewBox="0 0 431 64" fill="none" xmlns="http://www.w3.org/2000/svg">
<rect width="430" height="64" transform="translate(0.463135)" fill="#0A0A0A"/>
<path fill-rule="evenodd" clip-rule="evenodd" d="M52.4631 22.1426L62.2131 27.5592V41.7505H54.7131V34.7505H50.2131V41.7505H42.7131V27.5592L52.4631 22.1426ZM44.2131 28.4419V40.2505H48.7131V33.2505H56.2131V40.2505H60.7131V28.4418L52.4631 23.8585L44.2131 28.4419Z" fill="#6C6C6C"/>
<path fill-rule="evenodd" clip-rule="evenodd" d="M160.13 22.25C155.297 22.25 151.38 26.1675 151.38 31C151.38 35.8325 155.297 39.75 160.13 39.75C162.276 39.75 164.242 38.9773 165.764 37.6949L170.13 42.0607L171.191 41L166.825 36.6342C168.107 35.112 168.88 33.1462 168.88 31C168.88 26.1675 164.962 22.25 160.13 22.25ZM152.88 31C152.88 26.9959 156.126 23.75 160.13 23.75C164.134 23.75 167.38 26.9959 167.38 31C167.38 35.0041 164.134 38.25 160.13 38.25C156.126 38.25 152.88 35.0041 152.88 31Z" fill="#E7E7E7"/>
<path d="M266.046 26.25H273.546V27.75H266.046V26.25Z" fill="#6C6C6C"/>
<path d="M273.546 30.25H266.046V31.75H273.546V30.25Z" fill="#6C6C6C"/>
<path fill-rule="evenodd" clip-rule="evenodd" d="M277.546 22.25H262.046V41.75H277.546V22.25ZM276.046 36.25V23.75H263.546V36.25H276.046ZM263.546 37.75V40.25H276.046V37.75H263.546Z" fill="#6C6C6C"/>
<path fill-rule="evenodd" clip-rule="evenodd" d="M378.463 22.25C376.116 22.25 374.213 24.1528 374.213 26.5C374.213 28.8472 376.116 30.75 378.463 30.75C380.81 30.75 382.713 28.8472 382.713 26.5C382.713 24.1528 380.81 22.25 378.463 22.25ZM375.713 26.5C375.713 24.9812 376.944 23.75 378.463 23.75C379.982 23.75 381.213 24.9812 381.213 26.5C381.213 28.0188 379.982 29.25 378.463 29.25C376.944 29.25 375.713 28.0188 375.713 26.5Z" fill="#6C6C6C"/>
<path fill-rule="evenodd" clip-rule="evenodd" d="M378.463 32.75C374.183 32.75 370.713 36.2198 370.713 40.5V41.75H386.213V40.5C386.213 36.2198 382.743 32.75 378.463 32.75ZM378.463 34.25C381.831 34.25 384.577 36.9141 384.708 40.25H372.218C372.349 36.9141 375.095 34.25 378.463 34.25Z" fill="#6C6C6C"/>
</svg>
