<svg width="24" height="24" viewBox="0 0 24 24" fill="none" xmlns="http://www.w3.org/2000/svg">
<path fill-rule="evenodd" clip-rule="evenodd" d="M12.0001 8.7501C10.2052 8.7501 8.7501 10.2052 8.7501 12.0001C8.7501 13.795 10.2052 15.2501 12.0001 15.2501C13.795 15.2501 15.2501 13.795 15.2501 12.0001C15.2501 10.2052 13.795 8.7501 12.0001 8.7501ZM10.2501 12.0001C10.2501 11.0336 11.0336 10.2501 12.0001 10.2501C12.9666 10.2501 13.7501 11.0336 13.7501 12.0001C13.7501 12.9666 12.9666 13.7501 12.0001 13.7501C11.0336 13.7501 10.2501 12.9666 10.2501 12.0001Z" fill="#E7E7E7"/>
<path fill-rule="evenodd" clip-rule="evenodd" d="M14.9468 4.88615L12.0001 1.93945L9.05342 4.88615H4.88615V9.05342L1.93945 12.0001L4.88615 14.9468V19.1141H9.05341L12.0001 22.0608L14.9468 19.1141H19.1141V14.9468L22.0608 12.0001L19.1141 9.05341V4.88615H14.9468ZM9.67474 6.38615L12.0001 4.06077L14.3255 6.38615H17.6141V9.67473L19.9395 12.0001L17.6141 14.3255V17.6141H14.3255L12.0001 19.9395L9.67474 17.6141H6.38615V14.3255L4.06077 12.0001L6.38615 9.67474V6.38615H9.67474Z" fill="#E7E7E7"/>
</svg>
