<svg width="390" height="45" viewBox="0 0 390 45" fill="none" xmlns="http://www.w3.org/2000/svg">
<rect y="0.5" width="390" height="44" rx="10" fill="#232323"/>
<path fill-rule="evenodd" clip-rule="evenodd" d="M25 12.75C20.1675 12.75 16.25 16.6675 16.25 21.5C16.25 26.3325 20.1675 30.25 25 30.25C27.1462 30.25 29.112 29.4773 30.6342 28.1949L35 32.5607L36.0607 31.5L31.6949 27.1342C32.9773 25.612 33.75 23.6462 33.75 21.5C33.75 16.6675 29.8325 12.75 25 12.75ZM17.75 21.5C17.75 17.4959 20.9959 14.25 25 14.25C29.0041 14.25 32.25 17.4959 32.25 21.5C32.25 25.5041 29.0041 28.75 25 28.75C20.9959 28.75 17.75 25.5041 17.75 21.5Z" fill="#9D9D9D"/>
<path d="M52.6406 28.2188C50.9531 28.2188 49.7188 27.5312 48.7344 26.0781L49.8906 25.3438C50.6719 26.4531 51.4688 26.9062 52.6406 26.9062C54.1875 26.9062 55.1406 26.125 55.1406 24.8438C55.1406 23.8125 54.5156 23.2656 52.7344 22.7656L52.1719 22.6094C50.0781 22.0312 49.1406 21.1094 49.1406 19.6406C49.1406 17.8125 50.6094 16.4688 52.6406 16.4688C54.1719 16.4688 55.5469 17.25 56.375 18.5781L55.1875 19.2656C54.5625 18.2969 53.6719 17.7812 52.6406 17.7812C51.3906 17.7812 50.5469 18.5312 50.5469 19.6406C50.5469 20.5 51.0625 20.9375 52.5469 21.3438L53.1094 21.5C55.5156 22.1719 56.5469 23.1719 56.5469 24.8438C56.5469 26.875 54.9844 28.2188 52.6406 28.2188ZM62.1562 28.2188C59.7344 28.2188 57.9531 26.3906 57.9531 23.9688C57.9531 21.5469 59.6875 19.7188 62 19.7188C64.3125 19.7188 65.9219 21.5469 65.9219 23.9688L65.9062 24.4219H59.3281C59.5078 25.9688 60.6484 26.9688 62.1875 26.9688C63.2969 26.9688 64.0938 26.4453 64.5 25.5781L65.6562 26.0781C65.0391 27.375 63.8125 28.2188 62.1562 28.2188ZM59.3906 23.1406H64.4844C64.3906 21.9141 63.3906 20.9688 62 20.9688C60.6719 20.9688 59.6797 21.8281 59.3906 23.1406ZM71.2344 26.9688C72.7656 26.9688 73.8594 25.7344 73.8594 23.9688C73.8594 22.2031 72.7656 20.9688 71.2344 20.9688C69.6875 20.9688 68.6094 22.2188 68.6094 23.9688C68.6094 25.7188 69.6875 26.9688 71.2344 26.9688ZM75.1094 28H73.7969V26.7344H73.75C73.1953 27.6953 72.2969 28.2188 71.1094 28.2188C68.875 28.2188 67.2656 26.3906 67.2656 23.9688C67.2656 21.5469 68.875 19.7188 71.1094 19.7188C72.2969 19.7188 73.1953 20.2422 73.75 21.2031H73.7969V19.9375H75.1094V28ZM77.2031 28V19.9375H78.5156V21.1875H78.5781C78.9766 20.3125 79.7734 19.7188 80.6875 19.7188C80.9844 19.7188 81.2656 19.7812 81.5312 19.8906V21.1875C81.2344 21.0938 80.9375 21.0469 80.6562 21.0469C79.3125 21.0469 78.5156 22.125 78.5156 23.9688V28H77.2031ZM86.5781 28.2188C84.1875 28.2188 82.4062 26.3906 82.4062 23.9688C82.4062 21.5469 84.1875 19.7188 86.5781 19.7188C88.0703 19.7188 89.2734 20.4297 89.9375 21.5938L88.7812 22.1875C88.3438 21.4141 87.5781 20.9688 86.5781 20.9688C84.9062 20.9688 83.75 22.2031 83.75 23.9688C83.75 25.7344 84.9062 26.9688 86.5781 26.9688C87.5781 26.9688 88.3438 26.5234 88.7812 25.75L89.9375 26.3438C89.2734 27.5078 88.0703 28.2188 86.5781 28.2188ZM91.6562 28V16.6875H92.9688V21.1094H93.0312C93.4219 20.25 94.2891 19.7188 95.4375 19.7188C97.2344 19.7188 98.2188 20.9844 98.2188 23.0625V28H96.9062V23.25C96.9062 21.7656 96.2812 20.9688 95.1562 20.9688C94.0312 20.9688 92.9688 21.7656 92.9688 23.5V28H91.6562ZM108.109 28.2188C105.719 28.2188 103.938 26.3906 103.938 23.9688C103.938 21.5469 105.719 19.7188 108.109 19.7188C109.602 19.7188 110.805 20.4297 111.469 21.5938L110.312 22.1875C109.875 21.4141 109.109 20.9688 108.109 20.9688C106.438 20.9688 105.281 22.2031 105.281 23.9688C105.281 25.7344 106.438 26.9688 108.109 26.9688C109.109 26.9688 109.875 26.5234 110.312 25.75L111.469 26.3438C110.805 27.5078 109.602 28.2188 108.109 28.2188ZM116.953 28.2188C114.594 28.2188 112.812 26.3906 112.812 23.9688C112.812 21.5469 114.594 19.7188 116.953 19.7188C119.312 19.7188 121.094 21.5469 121.094 23.9688C121.094 26.3906 119.312 28.2188 116.953 28.2188ZM116.953 26.9688C118.594 26.9688 119.75 25.7344 119.75 23.9688C119.75 22.2031 118.594 20.9688 116.953 20.9688C115.312 20.9688 114.156 22.2031 114.156 23.9688C114.156 25.7344 115.312 26.9688 116.953 26.9688ZM122.812 28V19.9375H124.125V21.1094H124.188C124.578 20.25 125.445 19.7188 126.594 19.7188C128.391 19.7188 129.375 20.9844 129.375 23.0625V28H128.062V23.25C128.062 21.7656 127.438 20.9688 126.312 20.9688C125.188 20.9688 124.125 21.7656 124.125 23.5V28H122.812ZM130.594 21.0312V19.9375H131.969V17.9375H133.281V19.9375H135.281V21.0312H133.281V25.6562C133.281 26.5312 133.656 26.9375 134.469 26.9375C134.719 26.9375 135 26.8906 135.281 26.8125V28.0469C135.031 28.1406 134.688 28.2188 134.281 28.2188C132.859 28.2188 131.969 27.25 131.969 25.7031V21.0312H130.594ZM140.703 28.2188C138.281 28.2188 136.5 26.3906 136.5 23.9688C136.5 21.5469 138.234 19.7188 140.547 19.7188C142.859 19.7188 144.469 21.5469 144.469 23.9688L144.453 24.4219H137.875C138.055 25.9688 139.195 26.9688 140.734 26.9688C141.844 26.9688 142.641 26.4453 143.047 25.5781L144.203 26.0781C143.586 27.375 142.359 28.2188 140.703 28.2188ZM137.938 23.1406H143.031C142.938 21.9141 141.938 20.9688 140.547 20.9688C139.219 20.9688 138.227 21.8281 137.938 23.1406ZM146.188 28V19.9375H147.5V21.1094H147.562C147.953 20.25 148.82 19.7188 149.969 19.7188C151.766 19.7188 152.75 20.9844 152.75 23.0625V28H151.438V23.25C151.438 21.7656 150.812 20.9688 149.688 20.9688C148.562 20.9688 147.5 21.7656 147.5 23.5V28H146.188ZM153.969 21.0312V19.9375H155.344V17.9375H156.656V19.9375H158.656V21.0312H156.656V25.6562C156.656 26.5312 157.031 26.9375 157.844 26.9375C158.094 26.9375 158.375 26.8906 158.656 26.8125V28.0469C158.406 28.1406 158.062 28.2188 157.656 28.2188C156.234 28.2188 155.344 27.25 155.344 25.7031V21.0312H153.969ZM163.125 28.2188C161.812 28.2188 160.766 27.7031 160 26.6875L161.062 25.9375C161.594 26.6562 162.219 26.9688 163.125 26.9688C164.25 26.9688 164.906 26.5 164.906 25.7031C164.906 25.0781 164.484 24.7656 163.188 24.4375L162.75 24.3281C161.078 23.9062 160.281 23.1875 160.281 22.0938C160.281 20.7344 161.5 19.7188 163.125 19.7188C164.328 19.7188 165.438 20.2812 166.078 21.2344L164.984 21.9531C164.531 21.3125 163.891 20.9688 163.125 20.9688C162.234 20.9688 161.625 21.4219 161.625 22.0938C161.625 22.5938 161.953 22.8281 163.062 23.1094L163.5 23.2188C165.406 23.6875 166.25 24.4531 166.25 25.7031C166.25 27.2031 164.984 28.2188 163.125 28.2188Z" fill="#3B3B3B"/>
</svg>
